# xmcd
# 
# Track frame offsets:
#     150
#     31364
#     56002
#     71366
#     95271
#     122320
#     141285
#     169726
#     194302
#     223311
# 
# Disc length: 3354
# 
# Revision: 3
# Processed by: cddbd v1.5.2PL0 Copyright (c) Steve Scherf et al.
# Submitted via: fre:ac v1.0.31
# 
DISCID=8d0d180a
DTITLE=Killing Joke - Killing Joke
DYEAR=2003
DGENRE=Rock
TTITLE0=The Death and Resurrection Show
TTITLE1=Total Invasion
TTITLE2=Asteroid
TTITLE3=Implant
TTITLE4=Blood On Your Hands
TTITLE5=Loose Cannon
TTITLE6=You'll Never Get To Me
TTITLE7=Seeing Red
TTITLE8=Dark Forces
TTITLE9=The House That Pain Built
EXTD=
EXTT0=
EXTT1=
EXTT2=
EXTT3=
EXTT4=
EXTT5=
EXTT6=
EXTT7=
EXTT8=
EXTT9=
PLAYORDER=
